<svg width="2500" height="1148" viewBox="0 0 2500 1148" fill="none" xmlns="http://www.w3.org/2000/svg">
<g clip-path="url(#clip0)">
<path fill-rule="evenodd" clip-rule="evenodd" d="M1093.89 852.623C1120.94 838.628 1140.43 804.019 1140.43 763.56C1140.43 709.782 1106.15 667.181 1064.83 666.754H869.957C843.753 666.754 833 697.302 833 708.491V931.787L895.329 932L895.153 859.088H1018.8L1069.03 932H1148.49L1093.89 852.623ZM1054.75 788.946C1066.85 788.52 1075.93 776.691 1075.93 762.27C1075.93 747.647 1066.85 736.245 1054.75 736.245H893.979V788.733L1054.75 788.946ZM2403.41 852.623C2430.45 838.628 2449.95 804.019 2449.95 763.56C2449.95 709.782 2415.67 667.181 2374.33 666.754H2179.48C2153.25 666.754 2142.51 697.302 2142.51 708.491L2142.85 931.787L2204.83 932L2204.66 859.088H2328.31L2378.54 932H2458L2403.41 852.623ZM2364.25 788.946C2376.36 788.52 2385.42 776.691 2385.42 762.27C2385.42 747.647 2376.36 736.245 2364.25 736.245H2203.49V788.733L2364.25 788.946ZM1292.96 693.217C1317.15 652.132 1365.19 650.841 1392.58 693.869L1540.58 931.586H1261.72L1297.67 863.599H1418.79L1343.53 741.632L1235.01 931.799H1156.88L1292.96 693.217ZM1846.85 734.729C1846.85 689.121 1872.54 666.754 1893.87 666.754H2119.66L2119.83 739.465H1911.68L1911.51 764.851L2111.08 765.064L2111.27 834.33H1911.51L1911.35 860.366L2119.82 860.58L2119.65 931.372H1899.91C1846.84 932 1846.99 876.931 1846.99 860.793L1846.85 734.729ZM1619.38 666.754H1825.85V739.24H1622.57C1600.56 739.465 1579.22 766.568 1579.22 800.123C1579.22 833.678 1600.55 861.018 1626.93 861.219L1825.85 861.432V931.988H1619.55C1562.77 932.426 1516.23 872.834 1516.23 799.484C1516.23 726.133 1562.77 666.754 1619.38 666.754Z" fill="black"/>
<path d="M242.477 1048.36C210.966 1048.36 195.211 1032.96 195.211 1002.16C195.211 970.296 224.394 946.126 282.76 929.654C438.88 886.686 550.419 833.87 617.379 771.207C690.426 702.457 726.949 607.747 726.949 487.076C726.949 421.907 720.862 370.702 708.688 333.463C696.871 296.223 684.16 266.503 670.553 244.303C657.304 221.744 640.833 202.229 621.139 185.758C579.244 151.383 526.249 134.195 462.154 134.195C337.187 134.195 256.441 197.753 219.918 324.869C207.743 368.196 201.656 419.579 201.656 479.02C201.656 618.668 237.822 710.335 310.152 754.02C327.698 764.762 348.466 771.923 372.457 775.504C379.977 777.652 385.527 782.844 389.107 791.08C395.553 805.761 396.627 815.429 392.33 820.084C383.378 829.752 364.938 834.228 337.008 833.512C309.436 832.438 283.476 827.783 259.127 819.547C234.778 811.311 212.398 799.853 191.988 785.172C171.578 770.491 153.495 753.303 137.74 733.609C121.985 713.915 108.557 692.073 97.457 668.082C74.8984 619.384 63.6191 567.285 63.6191 511.783C63.6191 456.282 69.3483 407.047 80.8066 364.078C92.623 320.751 108.557 282.258 128.609 248.6C149.02 214.583 172.831 185.221 200.045 160.514C227.617 135.449 257.158 114.859 288.668 98.7461C350.615 66.5195 412.382 50.4062 473.971 50.4062C535.559 50.4062 589.091 59.5371 634.566 77.7988C680.4 95.7025 720.146 121.663 753.805 155.68C826.852 229.085 863.375 326.122 863.375 446.793C863.375 622.249 798.206 755.81 667.867 847.477C613.798 885.074 549.524 915.152 475.045 937.711L526.07 958.121C590.882 983.186 640.654 995.719 675.387 995.719C757.385 995.719 814.319 975.667 846.188 935.562C858.362 934.846 867.493 938.785 873.58 947.379C879.667 956.331 882.711 967.968 882.711 982.291C882.711 996.614 877.877 1011.83 868.209 1027.95C858.541 1044.42 844.934 1058.74 827.389 1070.91C789.433 1097.77 742.167 1111.2 685.592 1111.2C649.785 1111.2 614.693 1104.57 580.318 1091.32C545.943 1078.43 518.909 1067.33 499.215 1058.02L441.207 1032.78C398.596 1014.52 367.802 1005.39 348.824 1005.39C330.204 1005.39 315.523 1006.64 304.781 1009.15C294.039 1011.65 284.908 1014.88 277.389 1018.81C267.721 1023.83 256.083 1033.67 242.477 1048.36Z" fill="#181818"/>
</g>
<defs>
<clipPath id="clip0">
<rect width="2500" height="1148" fill="white"/>
</clipPath>
</defs>
</svg>
