<svg width="691" height="657" viewBox="0 0 691 657" fill="none" xmlns="http://www.w3.org/2000/svg">
<path d="M346.5 630.34C508.701 630.34 640.191 495.202 640.191 328.5C640.191 161.798 508.701 26.6597 346.5 26.6597C184.299 26.6597 52.8091 161.798 52.8091 328.5C52.8091 495.202 184.299 630.34 346.5 630.34Z" fill="#008595"/>
<path d="M610.422 328.5C610.422 328.5 492.223 458.906 346.5 458.906C200.777 458.906 82.5784 328.5 82.5784 328.5C82.5784 328.5 200.777 198.094 346.5 198.094C492.223 198.094 610.422 328.5 610.422 328.5Z" fill="white"/>
<path d="M610.422 328.5C610.422 328.5 492.223 458.906 346.5 458.906C200.777 458.906 82.5784 328.5 82.5784 328.5C82.5784 328.5 200.777 198.094 346.5 198.094C492.223 198.094 610.422 328.5 610.422 328.5Z" fill="white"/>
<path d="M346.5 430.016C401.915 430.016 446.837 383.847 446.837 326.895C446.837 269.943 401.915 223.774 346.5 223.774C291.085 223.774 246.163 269.943 246.163 326.895C246.163 383.847 291.085 430.016 346.5 430.016Z" fill="#00ACC1"/>
<path d="M346.5 385.678C378.089 385.678 403.696 359.36 403.696 326.895C403.696 294.43 378.089 268.112 346.5 268.112C314.912 268.112 289.304 294.43 289.304 326.895C289.304 359.36 314.912 385.678 346.5 385.678Z" fill="#333333"/>
<path d="M308.63 316.864C321.729 316.864 332.347 305.95 332.347 292.488C332.347 279.025 321.729 268.112 308.63 268.112C295.531 268.112 284.912 279.025 284.912 292.488C284.912 305.95 295.531 316.864 308.63 316.864Z" fill="white"/>
<path d="M232.401 171.712L198.239 134.696" stroke="white" stroke-width="22.1618" stroke-miterlimit="10" stroke-linecap="round"/>
<path d="M494.761 134.696L460.599 171.712" stroke="white" stroke-width="22.1618" stroke-miterlimit="10" stroke-linecap="round"/>
<path d="M349.135 148.84V104.602" stroke="white" stroke-width="22.1618" stroke-miterlimit="10" stroke-linecap="round"/>
</svg>
