<svg width="1005" height="1124" viewBox="0 0 1005 1124" fill="none" xmlns="http://www.w3.org/2000/svg">
<g clip-path="url(#clip0)">
<path d="M235.663 1032.1C204.152 1032.1 188.397 1016.7 188.397 985.91C188.397 954.041 217.58 929.871 275.946 913.4C432.066 870.431 543.605 817.615 610.565 754.953C683.612 686.203 720.135 591.492 720.135 470.822C720.135 405.653 714.048 354.448 701.873 317.208C690.057 279.969 677.345 250.249 663.739 228.048C650.49 205.49 634.019 185.975 614.325 169.503C572.43 135.128 519.435 117.941 455.34 117.941C330.373 117.941 249.627 181.499 213.104 308.615C200.929 351.942 194.842 403.325 194.842 462.765C194.842 602.414 231.008 694.08 303.338 737.765C320.884 748.507 341.652 755.669 365.643 759.25C373.163 761.398 378.713 766.59 382.293 774.826C388.739 789.507 389.813 799.175 385.516 803.83C376.564 813.498 358.123 817.973 330.194 817.257C302.622 816.183 276.662 811.528 252.313 803.292C227.964 795.057 205.584 783.598 185.174 768.917C164.764 754.236 146.681 737.049 130.926 717.355C115.171 697.661 101.743 675.819 90.643 651.828C68.0844 603.13 56.8051 551.03 56.8051 495.529C56.8051 440.028 62.5343 390.792 73.9926 347.824C85.809 304.497 101.743 266.004 121.795 232.345C142.206 198.328 166.017 168.966 193.231 144.259C220.803 119.194 250.344 98.605 281.854 82.4917C343.801 50.2651 405.568 34.1519 467.157 34.1519C528.745 34.1519 582.277 43.2827 627.752 61.5444C673.586 79.4481 713.332 105.408 746.991 139.425C820.038 212.83 856.561 309.868 856.561 430.539C856.561 605.994 791.392 739.556 661.053 831.222C606.984 868.82 542.71 898.898 468.231 921.457L519.256 941.867C584.067 966.932 633.84 979.464 668.573 979.464C750.571 979.464 807.505 959.412 839.373 919.308C851.548 918.592 860.679 922.531 866.766 931.125C872.853 940.076 875.897 951.714 875.897 966.037C875.897 980.36 871.063 995.578 861.395 1011.69C851.727 1028.16 838.12 1042.49 820.575 1054.66C782.619 1081.52 735.353 1094.94 678.778 1094.94C642.97 1094.94 607.879 1088.32 573.504 1075.07C539.129 1062.18 512.095 1051.08 492.401 1041.77L434.393 1016.52C391.782 998.263 360.988 989.132 342.01 989.132C323.39 989.132 308.709 990.386 297.967 992.892C287.225 995.399 278.094 998.621 270.575 1002.56C260.907 1007.57 249.269 1017.42 235.663 1032.1Z" fill="#F7F7F7"/>
</g>
<defs>
<clipPath id="clip0">
<rect width="1005" height="1124" fill="white"/>
</clipPath>
</defs>
</svg>
